<svg xmlns="http://www.w3.org/2000/svg" xmlns:xlink="http://www.w3.org/1999/xlink" viewBox="0 0 32 32"><defs><linearGradient id="a"><stop offset="0" style="stop-color:#d66297;stop-opacity:1"/><stop offset="1" style="stop-color:#ff9030;stop-opacity:1"/></linearGradient><linearGradient xlink:href="#a" id="b" x1="19" x2="12" y1="31" y2="2" gradientUnits="userSpaceOnUse"/></defs><path d="M25.479 21.968a25 25 0 0 1-6.681 5.832c-.928.556-1.897 1.052-2.921 1.4-2.768.94-5.966.702-8.439-.856-1.809-1.14-3.203-3.012-3.52-5.127a6.66 6.66 0 0 1 .565-3.79 7.05 7.05 0 0 1 2.53-2.888 7.25 7.25 0 0 1 3.129-1.121m9.402-8.55a6.83 6.83 0 0 0-2.303-2.871 6.83 6.83 0 0 0-3.464-1.247 6.44 6.44 0 0 0-3.142.56 5.8 5.8 0 0 0-2.418 2.073c-.9 1.381-1.131 3.136-.82 4.755.41 2.143 1.692 4.015 3.103 5.68.985 1.162 2.047 2.256 3.102 3.356q5.228 5.451 10.243 11.101" style="fill:none;stroke:url(#b);stroke-width:4.87727;stroke-linecap:round;stroke-dasharray:none;stroke-opacity:1" transform="rotate(-4.4 22.57 -8.046)scale(.9393)"/></svg>